<svg width="51" height="51" viewBox="0 0 51 51" fill="none" xmlns="http://www.w3.org/2000/svg">
<path d="M20.7781 20.9621C18.8851 20.9621 17.0346 20.4006 15.4608 19.3486C13.8871 18.2966 12.6607 16.8015 11.9369 15.0523C11.2132 13.3031 11.0245 11.3786 11.3949 9.52214C11.7652 7.66572 12.6779 5.96087 14.0174 4.62331C15.357 3.28574 17.0632 2.37559 18.9201 2.008C20.7771 1.64041 22.7014 1.83191 24.4495 2.55827C26.1976 3.28463 27.6909 4.5132 28.7406 6.08854C29.7902 7.66387 30.349 9.51516 30.3462 11.4082C30.3387 13.9422 29.3278 16.3701 27.5347 18.1606C25.7415 19.9511 23.3121 20.9584 20.7781 20.9621ZM20.7781 4.67083C19.4456 4.67083 18.143 5.06597 17.035 5.80628C15.9271 6.54658 15.0635 7.59881 14.5536 8.82989C14.0437 10.061 13.9103 11.4156 14.1702 12.7225C14.4302 14.0295 15.0718 15.2299 16.0141 16.1722C16.9563 17.1144 18.1568 17.7561 19.4637 18.016C20.7706 18.276 22.1253 18.1426 23.3563 17.6326C24.5874 17.1227 25.6397 16.2592 26.38 15.1512C27.1203 14.0433 27.5154 12.7407 27.5154 11.4082C27.5154 9.62131 26.8056 7.90764 25.5421 6.64415C24.2786 5.38066 22.5649 4.67083 20.7781 4.67083Z" fill="#B0B0B0"/>
<path d="M23.2409 44.84C22.9316 44.5305 22.693 44.1577 22.5415 43.7473C22.39 43.3368 22.3292 42.8983 22.3634 42.4621H5.66162V34.2811C7.66798 32.1389 10.1021 30.4423 12.8062 29.3012C15.5103 28.16 18.424 27.5999 21.3585 27.657H22.3775C22.3126 27.1824 22.358 26.6993 22.5102 26.2451C22.6624 25.791 22.9173 25.3781 23.2551 25.0385L23.4249 24.8828C22.7597 24.8828 22.0095 24.7979 21.3585 24.7979C17.9054 24.7159 14.4773 25.4023 11.3221 26.8073C8.16678 28.2124 5.36315 30.3011 3.11389 32.9223C2.93014 33.1673 2.83081 33.4653 2.83081 33.7715V42.4621C2.83081 43.2129 3.12906 43.9329 3.65993 44.4638C4.19081 44.9947 4.91084 45.2929 5.66162 45.2929H23.6373L23.2409 44.84Z" fill="#B0B0B0"/>
<path d="M47.6708 33.0072L44.84 32.1438C44.6378 31.4514 44.3626 30.7824 44.0191 30.1481L45.4345 27.5155C45.4805 27.4101 45.4916 27.2929 45.4662 27.1808C45.4407 27.0687 45.38 26.9677 45.2929 26.8927L43.2406 24.8403C43.163 24.7563 43.0594 24.7009 42.9464 24.6829C42.8334 24.6649 42.7177 24.6855 42.6178 24.7413L40.0135 26.1567C39.373 25.7946 38.6941 25.505 37.9895 25.2933L37.1261 22.4625C37.0894 22.3583 37.0199 22.2688 36.928 22.2075C36.8361 22.1463 36.7268 22.1165 36.6165 22.1228H33.7149C33.6035 22.1215 33.4947 22.1568 33.4052 22.2232C33.3157 22.2897 33.2505 22.3837 33.2195 22.4908L32.3562 25.3216C31.6472 25.5278 30.9636 25.8127 30.318 26.1708L27.7419 24.7554C27.6442 24.7007 27.5309 24.6807 27.4203 24.6987C27.3098 24.7167 27.2086 24.7716 27.1333 24.8545L25.0385 26.8927C24.9608 26.9745 24.9109 27.0786 24.8956 27.1904C24.8804 27.3021 24.9007 27.4159 24.9536 27.5155L26.369 30.0915C25.995 30.7297 25.6958 31.4088 25.4773 32.1155L22.6465 32.9648C22.5394 32.9957 22.4454 33.0609 22.379 33.1504C22.3125 33.2399 22.2772 33.3487 22.2785 33.4602V36.3617C22.2868 36.464 22.3267 36.5611 22.3927 36.6397C22.4586 36.7183 22.5473 36.7745 22.6465 36.8005L25.4773 37.6639C25.6865 38.3582 25.9713 39.0275 26.3265 39.6596L24.9111 42.363C24.8571 42.4599 24.8362 42.5718 24.8515 42.6816C24.8668 42.7914 24.9176 42.8933 24.9961 42.9717L27.0484 45.024C27.1286 45.104 27.2319 45.1566 27.3437 45.1744C27.4556 45.1922 27.5701 45.1742 27.6712 45.1231L30.318 43.7077C30.9474 44.0473 31.6118 44.3178 32.2995 44.5145L33.1488 47.3453C33.1836 47.45 33.2498 47.5415 33.3384 47.6074C33.4271 47.6732 33.5338 47.7102 33.6442 47.7133H36.5457C36.6567 47.7123 36.7644 47.6761 36.8534 47.61C36.9424 47.5439 37.0082 47.4512 37.0411 47.3453L37.9045 44.4437C38.5825 44.2452 39.2373 43.9747 39.8578 43.6369L42.5329 45.0523C42.6312 45.1046 42.744 45.1232 42.8539 45.1053C42.9638 45.0874 43.0648 45.034 43.1415 44.9532L45.2929 43.0283C45.3508 42.9452 45.3818 42.8464 45.3818 42.7452C45.3818 42.644 45.3508 42.5452 45.2929 42.4621L43.8775 39.8012C44.2211 39.1768 44.4964 38.5172 44.6985 37.8338L47.5293 36.9704C47.6364 36.9394 47.7303 36.8742 47.7968 36.7847C47.8633 36.6952 47.8986 36.5864 47.8973 36.475V33.5026C47.9103 33.4071 47.8959 33.3098 47.8558 33.2221C47.8157 33.1344 47.7516 33.0599 47.6708 33.0072ZM35.1728 39.6313C34.2366 39.6341 33.3207 39.3589 32.5411 38.8405C31.7615 38.3221 31.1534 37.5839 30.7938 36.7195C30.4342 35.8551 30.3394 34.9034 30.5214 33.9851C30.7033 33.0667 31.1539 32.2231 31.8159 31.5611C32.4779 30.8991 33.3215 30.4485 34.2399 30.2666C35.1582 30.0846 36.1099 30.1794 36.9743 30.539C37.8387 30.8986 38.5769 31.5067 39.0953 32.2863C39.6137 33.0659 39.8889 33.9818 39.8861 34.918C39.8824 36.1669 39.3846 37.3636 38.5015 38.2467C37.6184 39.1298 36.4217 39.6276 35.1728 39.6313Z" fill="#B0B0B0"/>
</svg>
