<svg width="50" height="50" viewBox="0 0 50 50" fill="none" xmlns="http://www.w3.org/2000/svg">
<path d="M40.9722 45.0694V38.9236C40.9722 33.1301 40.9722 30.2314 39.1715 28.4327C37.3728 26.6319 34.474 26.6319 28.6806 26.6319L24.5833 30.7292L20.4861 26.6319C14.6927 26.6319 11.7939 26.6319 9.99519 28.4327C8.19446 30.2314 8.19446 33.1301 8.19446 38.9236V45.0694M32.7778 26.6319V37.8993" stroke="#B0B0B0" stroke-width="3.07292" stroke-linecap="round" stroke-linejoin="round"/>
<path d="M17.4133 26.6319V34.8264M17.4133 34.8264C18.4999 34.8264 19.5421 35.2581 20.3104 36.0264C21.0788 36.7948 21.5105 37.837 21.5105 38.9236V40.9722M17.4133 34.8264C16.3266 34.8264 15.2845 35.2581 14.5161 36.0264C13.7477 36.7948 13.316 37.837 13.316 38.9236V40.9722M31.7535 13.316V11.2674C31.7535 10.3258 31.5681 9.39339 31.2077 8.52347C30.8474 7.65355 30.3193 6.86312 29.6535 6.19731C28.9876 5.5315 28.1972 5.00335 27.3273 4.64302C26.4574 4.28268 25.525 4.09722 24.5834 4.09722C23.6418 4.09722 22.7094 4.28268 21.8395 4.64302C20.9696 5.00335 20.1792 5.5315 19.5133 6.19731C18.8475 6.86312 18.3194 7.65355 17.9591 8.52347C17.5987 9.39339 17.4133 10.3258 17.4133 11.2674V13.316C17.4133 14.2576 17.5987 15.1899 17.9591 16.0599C18.3194 16.9298 18.8475 17.7202 19.5133 18.386C20.1792 19.0518 20.9696 19.58 21.8395 19.9403C22.7094 20.3007 23.6418 20.4861 24.5834 20.4861C25.525 20.4861 26.4574 20.3007 27.3273 19.9403C28.1972 19.58 28.9876 19.0518 29.6535 18.386C30.3193 17.7202 30.8474 16.9298 31.2077 16.0599C31.5681 15.1899 31.7535 14.2576 31.7535 13.316Z" stroke="#B0B0B0" stroke-width="3.07292" stroke-linecap="round" stroke-linejoin="round"/>
<path d="M34.3143 39.4358C34.3143 39.8433 34.1524 40.2341 33.8642 40.5222C33.5761 40.8104 33.1853 40.9722 32.7778 40.9722C32.3703 40.9722 31.9795 40.8104 31.6914 40.5222C31.4032 40.2341 31.2413 39.8433 31.2413 39.4358C31.2413 39.0283 31.4032 38.6375 31.6914 38.3493C31.9795 38.0612 32.3703 37.8993 32.7778 37.8993C33.1853 37.8993 33.5761 38.0612 33.8642 38.3493C34.1524 38.6375 34.3143 39.0283 34.3143 39.4358Z" stroke="#B0B0B0" stroke-width="3.07292"/>
</svg>
