<svg width="50" height="50" viewBox="0 0 50 50" fill="none" xmlns="http://www.w3.org/2000/svg">
<path d="M40.9722 45.0694V38.9236C40.9722 33.1301 40.9722 30.2314 39.1715 28.4327C37.3728 26.6299 34.474 26.6299 28.6806 26.6299H20.4861C14.6927 26.6299 11.7939 26.6299 9.99519 28.4327C8.19446 30.2314 8.19446 33.1301 8.19446 38.9216C8.19446 40.8329 8.19446 41.7876 8.50585 42.5394C8.71176 43.0368 9.01369 43.4888 9.39438 43.8695C9.77507 44.2502 10.2271 44.5521 10.7245 44.7581C11.4763 45.0694 12.431 45.0694 14.3403 45.0694V27.6562M19.4618 26.6319L25.6077 45.0694" stroke="white" stroke-width="3.07292" stroke-linecap="round" stroke-linejoin="round"/>
<path d="M24.5833 38.9236H29.7049C30.5199 38.9236 31.3015 39.2474 31.8778 39.8237C32.454 40.3999 32.7778 41.1815 32.7778 41.9965C32.7778 42.8115 32.454 43.5931 31.8778 44.1694C31.3015 44.7457 30.5199 45.0694 29.7049 45.0694H25.6077M31.7535 13.316V11.2674C31.7535 10.3258 31.568 9.39339 31.2077 8.52347C30.8474 7.65355 30.3192 6.86312 29.6534 6.19731C28.9876 5.5315 28.1972 5.00335 27.3272 4.64302C26.4573 4.28269 25.5249 4.09723 24.5833 4.09723C23.6418 4.09723 22.7094 4.28269 21.8395 4.64302C20.9695 5.00335 20.1791 5.5315 19.5133 6.19731C18.8475 6.86312 18.3193 7.65355 17.959 8.52347C17.5987 9.39339 17.4132 10.3258 17.4132 11.2674V13.316C17.4132 14.2576 17.5987 15.1899 17.959 16.0599C18.3193 16.9298 18.8475 17.7202 19.5133 18.386C20.1791 19.0518 20.9695 19.58 21.8395 19.9403C22.7094 20.3007 23.6418 20.4861 24.5833 20.4861C25.5249 20.4861 26.4573 20.3007 27.3272 19.9403C28.1972 19.58 28.9876 19.0518 29.6534 18.386C30.3192 17.7202 30.8474 16.9298 31.2077 16.0599C31.568 15.1899 31.7535 14.2576 31.7535 13.316Z" stroke="white" stroke-width="3.07292" stroke-linecap="round" stroke-linejoin="round"/>
</svg>
