<svg width="50" height="50" viewBox="0 0 50 50" fill="none" xmlns="http://www.w3.org/2000/svg">
<path d="M40.9722 45.0695V38.9236C40.9722 33.1301 40.9722 30.2334 39.1715 28.4327C37.3728 26.632 34.474 26.632 28.6806 26.632L24.5833 30.7292L20.4861 26.632C14.6927 26.632 11.7939 26.632 9.99519 28.4327C8.19651 30.2334 8.19446 33.1301 8.19446 38.9236V45.0695M32.7778 32.7778V38.9236M35.8507 35.8507H29.7049M31.7535 13.316V11.2674C31.7535 9.36573 30.9981 7.54198 29.6534 6.19731C28.3087 4.85265 26.485 4.09723 24.5833 4.09723C22.6817 4.09723 20.858 4.85265 19.5133 6.19731C18.1686 7.54198 17.4132 9.36573 17.4132 11.2674V13.316C17.4132 14.2576 17.5987 15.19 17.959 16.0599C18.3193 16.9298 18.8475 17.7202 19.5133 18.386C20.1791 19.0518 20.9695 19.58 21.8395 19.9403C22.7094 20.3007 23.6418 20.4861 24.5833 20.4861C25.5249 20.4861 26.4573 20.3007 27.3272 19.9403C28.1972 19.58 28.9876 19.0518 29.6534 18.386C30.3192 17.7202 30.8474 16.9298 31.2077 16.0599C31.568 15.19 31.7535 14.2576 31.7535 13.316Z" stroke="#B0B0B0" stroke-width="3.07292" stroke-linecap="round" stroke-linejoin="round"/>
</svg>
